<svg width="48" height="48" viewBox="0 0 48 48" fill="none" xmlns="http://www.w3.org/2000/svg">
<path d="M24 4.5C20.1433 4.5 16.3731 5.64366 13.1664 7.78634C9.95963 9.92903 7.46027 12.9745 5.98436 16.5377C4.50845 20.1008 4.12228 24.0216 4.8747 27.8043C5.62711 31.5869 7.4843 35.0615 10.2114 37.7886C12.9386 40.5157 16.4131 42.3729 20.1957 43.1253C23.9784 43.8777 27.8992 43.4916 31.4623 42.0156C35.0255 40.5397 38.071 38.0404 40.2137 34.8336C42.3564 31.6269 43.5 27.8567 43.5 24C43.4945 18.83 41.4383 13.8732 37.7826 10.2174C34.1268 6.56167 29.1701 4.50546 24 4.5ZM13.5169 36.7331C13.6706 36.5456 13.8244 36.3713 13.9706 36.1875C14.0937 36.0335 14.1853 35.8567 14.2401 35.6673C14.2949 35.4779 14.3119 35.2796 14.29 35.0836C14.2682 34.8876 14.208 34.6979 14.1128 34.5252C14.0176 34.3525 13.8893 34.2003 13.7353 34.0772C13.5813 33.9541 13.4045 33.8625 13.2151 33.8077C13.0257 33.7529 12.8274 33.7359 12.6314 33.7578C12.4355 33.7796 12.2457 33.8399 12.073 33.935C11.9004 34.0302 11.7481 34.1585 11.625 34.3125L11.3738 34.6162C8.8686 31.646 7.49451 27.8856 7.49451 24C7.49451 20.1144 8.8686 16.354 11.3738 13.3837L11.625 13.6875C11.7481 13.8415 11.9004 13.9698 12.073 14.065C12.2457 14.1601 12.4355 14.2204 12.6314 14.2422C12.8274 14.2641 13.0257 14.2471 13.2151 14.1923C13.4045 14.1375 13.5813 14.0459 13.7353 13.9228C13.8893 13.7997 14.0176 13.6475 14.1128 13.4748C14.208 13.3021 14.2682 13.1124 14.29 12.9164C14.3119 12.7204 14.2949 12.5221 14.2401 12.3327C14.1853 12.1433 14.0937 11.9665 13.9706 11.8125C13.8244 11.625 13.6706 11.4375 13.5169 11.2669C16.4677 8.83174 20.1742 7.49983 24 7.49983C27.8258 7.49983 31.5323 8.83174 34.4831 11.2669C34.3294 11.4544 34.1756 11.6269 34.0294 11.8125C33.9063 11.9665 33.8147 12.1433 33.7599 12.3327C33.7051 12.5221 33.6881 12.7204 33.71 12.9164C33.7318 13.1124 33.7921 13.3021 33.8872 13.4748C33.9824 13.6475 34.1107 13.7997 34.2647 13.9228C34.4187 14.0459 34.5955 14.1375 34.7849 14.1923C34.9743 14.2471 35.1726 14.2641 35.3686 14.2422C35.5645 14.2204 35.7543 14.1601 35.927 14.065C36.0996 13.9698 36.2519 13.8415 36.375 13.6875L36.6263 13.3837C39.1314 16.354 40.5055 20.1144 40.5055 24C40.5055 27.8856 39.1314 31.646 36.6263 34.6162L36.375 34.3125C36.2543 34.1519 36.1026 34.0171 35.9288 33.9162C35.7551 33.8153 35.5628 33.7504 35.3635 33.7252C35.1641 33.7001 34.9618 33.7153 34.7684 33.7698C34.575 33.8244 34.3946 33.9172 34.2378 34.0429C34.081 34.1685 33.951 34.3244 33.8556 34.5012C33.7602 34.678 33.7013 34.8722 33.6824 35.0723C33.6635 35.2723 33.6849 35.4741 33.7455 35.6657C33.8061 35.8572 33.9045 36.0347 34.035 36.1875C34.1813 36.375 34.335 36.5531 34.4888 36.7331C31.538 39.1683 27.8315 40.5002 24.0056 40.5002C20.1798 40.5002 16.4733 39.1683 13.5225 36.7331H13.5169ZM17.9794 27.2475C17.793 28.3539 17.512 29.4423 17.1394 30.5006C17.0066 30.8758 16.7302 31.1829 16.371 31.3543C16.0118 31.5258 15.5993 31.5475 15.2241 31.4147C14.8489 31.2819 14.5418 31.0055 14.3704 30.6463C14.1989 30.2871 14.1772 29.8746 14.31 29.4994C14.6261 28.6061 14.8639 27.687 15.0206 26.7525C15.0515 26.5568 15.1209 26.3691 15.2247 26.2003C15.3285 26.0315 15.4648 25.885 15.6255 25.7692C15.7863 25.6534 15.9685 25.5706 16.1614 25.5255C16.3544 25.4805 16.5544 25.4741 16.7498 25.5068C16.9452 25.5395 17.1323 25.6106 17.3001 25.716C17.4679 25.8214 17.6131 25.959 17.7275 26.1209C17.8418 26.2827 17.9229 26.4656 17.9662 26.659C18.0094 26.8523 18.0139 27.0524 17.9794 27.2475ZM17.9794 20.7525C18.045 21.1449 17.9521 21.5472 17.7211 21.8711C17.4901 22.1949 17.1399 22.4137 16.7475 22.4794C16.6657 22.4927 16.5829 22.4996 16.5 22.5C16.1454 22.4995 15.8025 22.3735 15.532 22.1442C15.2615 21.9149 15.081 21.5972 15.0225 21.2475C14.8658 20.313 14.628 19.3939 14.3119 18.5006C14.1791 18.1254 14.2008 17.7129 14.3722 17.3537C14.5437 16.9945 14.8507 16.7181 15.2259 16.5853C15.6011 16.4525 16.0137 16.4742 16.3729 16.6457C16.7321 16.8171 17.0085 17.1242 17.1413 17.4994C17.5132 18.5578 17.7937 19.6461 17.9794 20.7525ZM32.775 31.4137C32.4001 31.5465 31.9877 31.5248 31.6287 31.3536C31.2697 31.1823 30.9935 30.8755 30.8606 30.5006C30.488 29.4423 30.207 28.3539 30.0206 27.2475C29.9861 27.0524 29.9906 26.8523 30.0339 26.659C30.0771 26.4656 30.1582 26.2827 30.2726 26.1209C30.3869 25.959 30.5321 25.8214 30.6999 25.716C30.8677 25.6106 31.0548 25.5395 31.2502 25.5068C31.4456 25.4741 31.6456 25.4805 31.8386 25.5255C32.0316 25.5706 32.2137 25.6534 32.3745 25.7692C32.5352 25.885 32.6715 26.0315 32.7753 26.2003C32.8791 26.3691 32.9485 26.5568 32.9794 26.7525C33.1361 27.687 33.3739 28.6061 33.69 29.4994C33.7557 29.6852 33.7841 29.882 33.7736 30.0788C33.7632 30.2756 33.7141 30.4684 33.6291 30.6461C33.5441 30.8239 33.425 30.9832 33.2784 31.1149C33.1319 31.2466 32.9608 31.3482 32.775 31.4137ZM30.0206 20.7525C30.207 19.6461 30.488 18.5577 30.8606 17.4994C30.9934 17.1242 31.2698 16.8171 31.629 16.6457C31.9882 16.4742 32.4007 16.4525 32.7759 16.5853C33.1511 16.7181 33.4582 16.9945 33.6297 17.3537C33.8011 17.7129 33.8228 18.1254 33.69 18.5006C33.3739 19.3939 33.1361 20.313 32.9794 21.2475C32.9208 21.5975 32.74 21.9155 32.4692 22.1448C32.1983 22.3741 31.8549 22.5 31.5 22.5C31.4165 22.4997 31.3331 22.4928 31.2506 22.4794C30.8586 22.4133 30.5089 22.1943 30.2783 21.8705C30.0476 21.5467 29.955 21.1446 30.0206 20.7525Z" fill="white"/>
</svg>
