<svg width="49" height="48" viewBox="0 0 49 48" fill="none" xmlns="http://www.w3.org/2000/svg">
<path d="M22.4167 33C22.4167 33.3978 22.2587 33.7794 21.9773 34.0607C21.696 34.342 21.3145 34.5 20.9167 34.5H15.6667C15.2689 34.5 14.8873 34.342 14.606 34.0607C14.3247 33.7794 14.1667 33.3978 14.1667 33C14.1667 32.6022 14.3247 32.2206 14.606 31.9393C14.8873 31.658 15.2689 31.5 15.6667 31.5H20.9167C21.3145 31.5 21.696 31.658 21.9773 31.9393C22.2587 32.2206 22.4167 32.6022 22.4167 33ZM33.6667 31.5H28.4167C28.0189 31.5 27.6373 31.658 27.356 31.9393C27.0747 32.2206 26.9167 32.6022 26.9167 33C26.9167 33.3978 27.0747 33.7794 27.356 34.0607C27.6373 34.342 28.0189 34.5 28.4167 34.5H33.6667C34.0645 34.5 34.446 34.342 34.7273 34.0607C35.0087 33.7794 35.1667 33.3978 35.1667 33C35.1667 32.6022 35.0087 32.2206 34.7273 31.9393C34.446 31.658 34.0645 31.5 33.6667 31.5ZM47.1667 40.5C47.1667 40.8978 47.0087 41.2794 46.7273 41.5607C46.446 41.842 46.0645 42 45.6667 42H3.66669C3.26886 42 2.88733 41.842 2.60603 41.5607C2.32472 41.2794 2.16669 40.8978 2.16669 40.5C2.16669 40.1022 2.32472 39.7206 2.60603 39.4393C2.88733 39.158 3.26886 39 3.66669 39H6.66669V16.5C6.66669 16.2214 6.74426 15.9484 6.89071 15.7114C7.03716 15.4744 7.24671 15.2829 7.49587 15.1584C7.74503 15.0338 8.02395 14.981 8.3014 15.0061C8.57884 15.0311 8.84383 15.1329 9.06669 15.3L18.6667 22.5V16.5C18.6667 16.2214 18.7443 15.9484 18.8907 15.7114C19.0372 15.4744 19.2467 15.2829 19.4959 15.1584C19.745 15.0338 20.024 14.981 20.3014 15.0061C20.5788 15.0311 20.8438 15.1329 21.0667 15.3L28.3304 20.7469L30.4979 5.57625C30.6029 4.86254 30.9603 4.21012 31.5052 3.73742C32.0502 3.26473 32.7466 3.00309 33.4679 3H36.8654C37.5868 3.00309 38.2832 3.26473 38.8281 3.73742C39.3731 4.21012 39.7305 4.86254 39.8354 5.57625L42.6479 25.2881C42.6479 25.2881 42.6629 25.4344 42.6629 25.5V39H45.6629C45.8602 38.9995 46.0557 39.0379 46.2381 39.1131C46.4205 39.1883 46.5863 39.2987 46.726 39.438C46.8657 39.5773 46.9765 39.7429 47.0521 39.9251C47.1278 40.1073 47.1667 40.3027 47.1667 40.5ZM31.0679 22.8L32.6673 24H39.4379L36.8654 6H33.4679L31.0679 22.8ZM9.66669 39H39.6667V27H32.1667C31.8421 27 31.5263 26.8947 31.2667 26.7L28.5667 24.675L21.6667 19.5V25.5C21.6667 25.7786 21.5891 26.0516 21.4427 26.2886C21.2962 26.5256 21.0867 26.7171 20.8375 26.8416C20.5883 26.9662 20.3094 27.019 20.032 26.9939C19.7545 26.9689 19.4895 26.8671 19.2667 26.7L9.66669 19.5V39Z" fill="white"/>
</svg>
