<svg width="40" height="41" viewBox="0 0 40 41" fill="none" xmlns="http://www.w3.org/2000/svg">
<circle cx="20" cy="20.5" r="20" fill="#E93E22"/>
<path d="M28.1562 19.9444L16.9 13.0585C16.7102 12.9423 16.4929 12.8788 16.2704 12.8747C16.0479 12.8706 15.8283 12.926 15.6344 13.0351C15.4423 13.1425 15.2822 13.2991 15.1708 13.4889C15.0593 13.6786 15.0003 13.8947 15 14.1147V27.8851C15.0014 28.2152 15.1339 28.5313 15.3683 28.7638C15.6027 28.9962 15.9199 29.1261 16.25 29.1249C16.4804 29.1248 16.7064 29.0613 16.9031 28.9413L28.1562 22.0554C28.3371 21.9451 28.4866 21.7902 28.5904 21.6055C28.6941 21.4208 28.7486 21.2125 28.7486 21.0007C28.7486 20.7888 28.6941 20.5806 28.5904 20.3959C28.4866 20.2112 28.3371 20.0562 28.1562 19.946V19.9444ZM16.25 27.8702V14.1249L27.4867 20.9999L16.25 27.8702Z" fill="white"/>
</svg>
