<svg width="49" height="48" viewBox="0 0 49 48" fill="none" xmlns="http://www.w3.org/2000/svg">
<path d="M45.1833 18.242C45.0016 17.6821 44.6592 17.188 44.1988 16.8213C43.7384 16.4545 43.1802 16.2313 42.5939 16.1795L31.4583 15.2195L27.0933 4.83949C26.866 4.29483 26.4827 3.82959 25.9915 3.50235C25.5004 3.1751 24.9234 3.00049 24.3333 3.00049C23.7431 3.00049 23.1661 3.1751 22.675 3.50235C22.1839 3.82959 21.8005 4.29483 21.5733 4.83949L17.2214 15.2195L6.07264 16.1851C5.48396 16.2346 4.92299 16.4568 4.46007 16.8238C3.99715 17.1908 3.65289 17.6863 3.47047 18.2482C3.28804 18.8101 3.27557 19.4133 3.43462 19.9823C3.59367 20.5512 3.91716 21.0605 4.36452 21.4464L12.8226 28.8376L10.2876 39.8139C10.1536 40.3883 10.1918 40.9894 10.3976 41.5422C10.6034 42.095 10.9675 42.5748 11.4445 42.9218C11.9215 43.2687 12.4902 43.4673 13.0795 43.4928C13.6687 43.5183 14.2525 43.3696 14.7576 43.0651L24.3201 37.2526L33.9033 43.0651C34.4084 43.3696 34.9922 43.5183 35.5814 43.4928C36.1707 43.4673 36.7394 43.2687 37.2164 42.9218C37.6934 42.5748 38.0575 42.095 38.2633 41.5422C38.4691 40.9894 38.5073 40.3883 38.3733 39.8139L35.8401 28.8264L44.2964 21.4464C44.7437 21.0592 45.0665 20.5484 45.2243 19.9783C45.3822 19.4081 45.3679 18.804 45.1833 18.242ZM42.3295 19.1795L33.8733 26.5595C33.4617 26.9175 33.1555 27.3809 32.9877 27.8999C32.8199 28.419 32.7967 28.9739 32.9208 29.5051L35.4614 40.5001L25.8858 34.6876C25.4186 34.4031 24.8821 34.2526 24.3351 34.2526C23.7882 34.2526 23.2517 34.4031 22.7845 34.6876L13.222 40.5001L15.7458 29.5126C15.8698 28.9814 15.8467 28.4265 15.6788 27.9074C15.511 27.3884 15.2048 26.925 14.7933 26.567L6.33327 19.1907C6.33258 19.1851 6.33258 19.1795 6.33327 19.1739L17.4783 18.2101C18.0224 18.1622 18.5431 17.9665 18.9842 17.6444C19.4253 17.3222 19.7701 16.8857 19.9814 16.382L24.3333 6.01511L28.6833 16.382C28.8945 16.8857 29.2393 17.3222 29.6804 17.6444C30.1216 17.9665 30.6423 18.1622 31.1864 18.2101L42.3333 19.1739C42.3333 19.1739 42.3333 19.1851 42.3333 19.187L42.3295 19.1795Z" fill="white"/>
</svg>
