<svg width="24" height="24" viewBox="0 0 24 24" fill="none" xmlns="http://www.w3.org/2000/svg">
<path d="M22.4749 19.4998H21.0002V8.9998C21.0002 8.60198 20.8421 8.22045 20.5608 7.93914C20.2795 7.65784 19.898 7.4998 19.5002 7.4998H15.3752C15.2757 7.4998 15.1803 7.53931 15.11 7.60964C15.0397 7.67996 15.0002 7.77535 15.0002 7.8748V19.4998H13.5002V3.03824C13.5027 2.8046 13.452 2.57345 13.3519 2.3623C13.2519 2.15115 13.1051 1.96553 12.9227 1.81949C12.6741 1.62565 12.3707 1.51507 12.0556 1.50346C11.7406 1.49185 11.4299 1.57979 11.1677 1.7548L3.66768 6.7498C3.46194 6.88707 3.29333 7.07309 3.17687 7.29129C3.06041 7.50948 2.99971 7.7531 3.00018 8.00043V19.4998H1.5255C1.33168 19.4969 1.14398 19.5676 1.00013 19.6975C0.856291 19.8274 0.766986 20.007 0.750183 20.2001C0.743371 20.3027 0.757726 20.4056 0.792355 20.5024C0.826984 20.5992 0.881148 20.6879 0.951482 20.7629C1.02182 20.8379 1.10682 20.8976 1.20121 20.9384C1.2956 20.9791 1.39737 21 1.50018 20.9998H22.5002C22.603 21 22.7048 20.9791 22.7992 20.9384C22.8935 20.8976 22.9785 20.8379 23.0489 20.7629C23.1192 20.6879 23.1734 20.5992 23.208 20.5024C23.2426 20.4056 23.257 20.3027 23.2502 20.2001C23.2334 20.007 23.1441 19.8274 23.0002 19.6975C22.8564 19.5676 22.6687 19.4969 22.4749 19.4998ZM7.12518 17.2498C7.12541 17.3526 7.10449 17.4544 7.06373 17.5488C7.02297 17.6432 6.96324 17.7282 6.88825 17.7985C6.81325 17.8688 6.7246 17.923 6.62779 17.9576C6.53098 17.9923 6.42809 18.0066 6.3255 17.9998C6.13223 17.983 5.95251 17.8936 5.82256 17.7495C5.69261 17.6055 5.62208 17.4175 5.62518 17.2236V15.7751C5.62254 15.5814 5.69326 15.3938 5.82314 15.25C5.95302 15.1062 6.13247 15.0168 6.3255 14.9998C6.42809 14.993 6.53098 15.0073 6.62779 15.042C6.7246 15.0766 6.81325 15.1308 6.88825 15.2011C6.96324 15.2714 7.02297 15.3564 7.06373 15.4508C7.10449 15.5452 7.12541 15.647 7.12518 15.7498V17.2498ZM7.12518 11.9998C7.12541 12.1026 7.10449 12.2044 7.06373 12.2988C7.02297 12.3932 6.96324 12.4782 6.88825 12.5485C6.81325 12.6188 6.7246 12.673 6.62779 12.7076C6.53098 12.7423 6.42809 12.7566 6.3255 12.7498C6.13231 12.7328 5.95272 12.6433 5.82282 12.4993C5.69291 12.3553 5.6223 12.1675 5.62518 11.9736V10.5251C5.62254 10.3314 5.69326 10.1438 5.82314 9.99998C5.95302 9.85619 6.13247 9.76682 6.3255 9.7498C6.42809 9.74299 6.53098 9.75735 6.62779 9.79198C6.7246 9.8266 6.81325 9.88077 6.88825 9.9511C6.96324 10.0214 7.02297 10.1064 7.06373 10.2008C7.10449 10.2952 7.12541 10.397 7.12518 10.4998V11.9998ZM10.8752 17.2498C10.8754 17.3526 10.8545 17.4544 10.8137 17.5488C10.773 17.6432 10.7132 17.7282 10.6382 17.7985C10.5633 17.8688 10.4746 17.923 10.3778 17.9576C10.281 17.9923 10.1781 18.0066 10.0755 17.9998C9.88256 17.983 9.70311 17.8938 9.57321 17.7502C9.4433 17.6066 9.37256 17.4191 9.37518 17.2254V15.7751C9.37278 15.5815 9.4436 15.3942 9.57346 15.2506C9.70332 15.107 9.88264 15.0177 10.0755 15.0007C10.1781 14.9939 10.281 15.0083 10.3778 15.0429C10.4746 15.0775 10.5633 15.1317 10.6382 15.202C10.7132 15.2724 10.773 15.3574 10.8137 15.4518C10.8545 15.5462 10.8754 15.6479 10.8752 15.7507V17.2498ZM10.8752 11.9998C10.8754 12.1026 10.8545 12.2044 10.8137 12.2988C10.773 12.3932 10.7132 12.4782 10.6382 12.5485C10.5633 12.6188 10.4746 12.673 10.3778 12.7076C10.281 12.7423 10.1781 12.7566 10.0755 12.7498C9.88264 12.7328 9.70332 12.6436 9.57346 12.5C9.4436 12.3564 9.37278 12.169 9.37518 11.9754V10.5251C9.37278 10.3315 9.4436 10.1442 9.57346 10.0006C9.70332 9.85698 9.88264 9.76775 10.0755 9.75074C10.1781 9.74393 10.281 9.75828 10.3778 9.79291C10.4746 9.82754 10.5633 9.88171 10.6382 9.95204C10.7132 10.0224 10.773 10.1074 10.8137 10.2018C10.8545 10.2962 10.8754 10.3979 10.8752 10.5007V11.9998Z" fill="#424751"/>
</svg>
