<svg xmlns="http://www.w3.org/2000/svg" width="40" height="40" viewBox="0 0 40 40" fill="none"><path d="M38.3843 12.1346L33.7125 16.8065C32.7687 27.7471 23.5421 36.2502 12.5 36.2502C10.2312 36.2502 8.36089 35.8908 6.94058 35.1815C5.79527 34.608 5.32652 33.994 5.20933 33.819C5.10484 33.6623 5.03711 33.484 5.0112 33.2974C4.9853 33.1108 5.00189 32.9208 5.05974 32.7416C5.11758 32.5623 5.21519 32.3985 5.34526 32.2623C5.47533 32.126 5.63451 32.021 5.81089 31.9549C5.85152 31.9393 9.59839 30.5002 11.9781 27.7612C10.6584 26.6761 9.50633 25.4019 8.55933 23.9799C6.62183 21.1033 4.45308 16.1065 5.12183 8.63928C5.14303 8.40201 5.23158 8.17573 5.37707 7.9871C5.52255 7.79847 5.71891 7.65534 5.94301 7.57457C6.16712 7.49379 6.40964 7.47873 6.64201 7.53117C6.87439 7.5836 7.08694 7.70135 7.25464 7.87053C7.30933 7.92522 12.4546 13.0424 18.7453 14.7018V13.7502C18.7429 12.7524 18.9402 11.7642 19.3255 10.8438C19.7108 9.92335 20.2764 9.08934 20.989 8.39084C21.681 7.69979 22.5045 7.15435 23.4107 6.78669C24.317 6.41904 25.2877 6.23663 26.2656 6.25022C27.5774 6.26316 28.8635 6.6153 29.999 7.27241C31.1344 7.92953 32.0805 8.86925 32.7453 10.0002H37.5C37.7473 10 37.9892 10.0732 38.1949 10.2106C38.4007 10.3479 38.561 10.5432 38.6557 10.7717C38.7504 11.0003 38.7752 11.2517 38.7269 11.4944C38.6786 11.737 38.5593 11.9598 38.3843 12.1346Z" fill="#1F2C45"></path></svg>